<?xml version="1.0" encoding="UTF-8"?>
<svg xmlns="http://www.w3.org/2000/svg" xmlns:xlink="http://www.w3.org/1999/xlink" viewBox="0 0 500 500" width="500px" height="500px">
<g id="surface205315211">
<path style=" stroke:none;fill-rule:nonzero;fill:rgb(100%,100%,100%);fill-opacity:1;" d="M 250 10.507812 C 247.824219 10.507812 245.660156 11.199219 243.808594 12.597656 L 13.808594 192.109375 C 9.507812 195.507812 8.710938 201.792969 12.109375 206.191406 C 15.507812 210.492188 21.792969 211.289062 26.191406 207.890625 L 40 197.109375 L 40 460 C 40 465.5 44.5 470 50 470 L 190 470 L 190 290 L 310 290 L 310 470 L 450 470 C 455.5 470 460 465.5 460 460 L 460 197.109375 L 473.808594 207.890625 C 475.707031 209.289062 477.800781 210 480 210 C 483 210 485.890625 208.691406 487.890625 206.191406 C 491.289062 201.792969 490.492188 195.507812 486.191406 192.109375 L 256.191406 12.597656 C 254.339844 11.199219 252.175781 10.507812 250 10.507812 Z M 350 50 L 350 60.507812 L 410 107.304688 L 410 50 Z M 350 50 "/>
</g>
</svg>
